<?xml version="1.0" encoding="UTF-8"?>
<svg version="1.1" xmlns="http://www.w3.org/2000/svg" width="246" height="348">
<path d="M0 0 C81.18 0 162.36 0 246 0 C246 114.84 246 229.68 246 348 C164.82 348 83.64 348 0 348 C0 233.16 0 118.32 0 0 Z " fill="#E3E3E3" transform="translate(0,0)"/>
<path d="M0 0 C5.77458209 5.575785 10.58899781 12.75619964 10.8203125 20.98828125 C10.63809327 28.64148912 7.14610133 34.7172305 2.0078125 40.23828125 C-3.9365637 45.6353166 -9.74040327 46.93096712 -17.62890625 46.71484375 C-23.2130849 45.94108828 -27.12205318 43.05074058 -31.64453125 39.87890625 C-43.2272989 31.85508955 -56.17094031 26.98129958 -69.58203125 22.91894531 C-71.32962103 22.3881275 -73.0681938 21.82778165 -74.8046875 21.26171875 C-93.09101459 16.05789694 -114.77682542 18.04325081 -131.78515625 26.43359375 C-133.6171875 27.30078125 -133.6171875 27.30078125 -137.0546875 28.30078125 C-139.71154185 29.03257437 -139.71154185 29.03257437 -140.6796875 31.11328125 C-141.14375 32.19609375 -141.14375 32.19609375 -141.6171875 33.30078125 C-142.7928125 34.38359375 -142.7928125 34.38359375 -143.9921875 35.48828125 C-150.47710575 42.43640795 -151.22249906 49.38209172 -150.93359375 58.7109375 C-150.21285291 66.88823174 -147.47122182 73.44674693 -141.6171875 79.30078125 C-127.3481746 90.57072411 -107.65147797 95.10158934 -90.07421875 98.43359375 C-15.35903263 112.72386548 -15.35903263 112.72386548 5.02734375 141.6328125 C13.88863275 155.51923755 16.74956675 169.79396054 16.69848633 186.01293945 C16.69533309 188.09965682 16.71884176 190.18494177 16.74414062 192.27148438 C16.84954705 214.54616872 8.7160045 233.14001399 -6.7421875 248.98828125 C-32.0017553 273.88721053 -67.1611432 281.53371882 -101.55297852 281.48364258 C-109.75066887 281.41498732 -117.53277621 280.71333223 -125.6171875 279.30078125 C-126.96836395 279.10153096 -128.31994745 278.90502611 -129.671875 278.7109375 C-157.44921271 274.53647563 -184.71294376 261.30956939 -203.5625 240.11328125 C-208.59319075 233.18730701 -208.88335294 225.48477924 -207.97167969 217.21240234 C-207.12867109 212.66642622 -204.80664354 209.51929839 -201.6171875 206.30078125 C-201.10285156 205.78128906 -200.58851563 205.26179687 -200.05859375 204.7265625 C-193.83563765 199.0854932 -187.42297641 198.68608355 -179.33984375 198.9296875 C-171.96245346 199.66510416 -167.60088919 203.45955468 -162.0546875 208.05078125 C-139.81225775 226.4007858 -112.83200129 232.10899158 -84.6171875 230.30078125 C-68.61891583 228.29596979 -51.31694579 222.17132867 -41.0546875 209.17578125 C-36.0085696 202.19806332 -35.98959711 194.58895906 -36.6171875 186.30078125 C-38.32594604 176.88107029 -44.09756966 169.63720286 -51.72265625 164.0859375 C-70.13974745 152.72748854 -91.50196169 148.92820194 -112.58959961 145.76416016 C-137.14373999 142.0032505 -160.75531032 133.98759512 -179.6171875 117.30078125 C-180.23980469 116.76066406 -180.86242187 116.22054687 -181.50390625 115.6640625 C-191.28958577 106.58207229 -196.83302687 94.88628685 -200.6171875 82.30078125 C-200.81296387 81.66664307 -201.00874023 81.03250488 -201.21044922 80.37915039 C-203.05418793 73.45731778 -202.98939238 66.40351024 -202.98779297 59.29174805 C-202.99214482 57.13443693 -203.02850028 54.97921378 -203.06640625 52.82226562 C-203.24602312 30.8842003 -194.21594456 13.27245676 -179.2421875 -2.38671875 C-132.92368478 -47.28730812 -46.92644296 -39.60701235 0 0 Z " fill="#C2509A" transform="translate(217.6171875,48.69921875)"/>
<path d="M0 0 C8.21801755 9.70149922 7.40247371 24.18193582 7.4375 36.1875 C7.44349213 36.86937378 7.44948425 37.55124756 7.45565796 38.25378418 C7.58979422 61.23970451 -0.12174341 80.28041388 -16.125 96.6875 C-41.3845678 121.58642928 -76.5439557 129.23293757 -110.93579102 129.18286133 C-119.13348137 129.11420607 -126.91558871 128.41255098 -135 127 C-136.35117645 126.80074971 -137.70275995 126.60424486 -139.0546875 126.41015625 C-166.83202521 122.23569438 -194.09575626 109.00878814 -212.9453125 87.8125 C-217.97600325 80.88652576 -218.26616544 73.18399799 -217.35449219 64.91162109 C-216.51148359 60.36564497 -214.18945604 57.21851714 -211 54 C-210.22849609 53.22076172 -210.22849609 53.22076172 -209.44140625 52.42578125 C-203.21845015 46.78471195 -196.80578891 46.3853023 -188.72265625 46.62890625 C-181.34526596 47.36432291 -176.98370169 51.15877343 -171.4375 55.75 C-149.15647233 74.13184782 -122.24582833 79.73955041 -94 78 C-88.14760532 77.31508271 -82.58875155 75.83156374 -77 74 C-76.25911133 73.75862305 -75.51822266 73.51724609 -74.75488281 73.26855469 C-43.77934886 62.85606019 -22.34472678 39.22462958 -6.76171875 11.15625 C-4.63559698 7.34714493 -2.3509472 3.673355 0 0 Z " fill="#BD4E9B" transform="translate(227,201)"/>
<path d="M0 0 C0.66 0.33 1.32 0.66 2 1 C1.278125 1.66 0.55625 2.32 -0.1875 3 C-6.36305862 9.15796443 -9.14474332 15.44132388 -9.25 24.125 C-9.23342084 34.02631383 -7.14318767 41.85681233 0 49 C14.2690129 60.26994286 33.96570953 64.80080809 51.54296875 68.1328125 C126.1098532 82.39471956 126.1098532 82.39471956 146.85546875 111.61328125 C151.062156 118.11102471 151.062156 118.11102471 150.83203125 121.40234375 C142.01667836 148.92445489 116.41904368 177.34927721 91.25 190.6875 C90.1775 191.120625 89.105 191.55375 88 192 C87.34 191.67 86.68 191.34 86 191 C86.72445312 190.5153125 87.44890625 190.030625 88.1953125 189.53125 C96.34752089 183.87905218 102.31033571 178.77729316 105 169 C106.0338472 158.29901018 104.64639845 149.31782033 97.7578125 140.8984375 C80.88072257 122.67118038 52.30641416 118.95619206 29.02758789 115.46337891 C4.47344751 111.70246925 -19.13812282 103.68681387 -38 87 C-38.62261719 86.45988281 -39.24523438 85.91976562 -39.88671875 85.36328125 C-45.14273078 80.48522964 -50.00663335 74.51888737 -53 68 C-52.94107055 62.29693835 -50.87794786 58.22340558 -48.0625 53.4375 C-47.45970215 52.39541382 -47.45970215 52.39541382 -46.84472656 51.33227539 C-34.93897552 31.10953315 -19.65429133 13.00528639 0 0 Z " fill="#F5964F" transform="translate(76,79)"/>
<path d="M0 0 C0.99 0.33 1.98 0.66 3 1 C-0.1254959 3.64465038 -3.08788267 4.84414715 -7 6 C-4.8322078 3.72381819 -2.67272281 1.67045176 0 0 Z " fill="#ED8680" transform="translate(169,265)"/>
</svg>
