<?xml version="1.0" encoding="iso-8859-1"?>
<!-- Uploaded to: SVG Repo, www.svgrepo.com, Generator: SVG Repo Mixer Tools -->
<!DOCTYPE svg PUBLIC "-//W3C//DTD SVG 1.1//EN" "http://www.w3.org/Graphics/SVG/1.1/DTD/svg11.dtd">
<svg fill="#000000" version="1.1" id="Capa_1" xmlns="http://www.w3.org/2000/svg" xmlns:xlink="http://www.w3.org/1999/xlink" 
	 width="800px" height="800px" viewBox="0 0 47.416 47.416"
	 xml:space="preserve">
<g>
	<path d="M40.728,0c-5.895,0-11.787,0-17.681,0c-3.787,0-7.574,0-11.361,0c-0.482,0-0.875,0.362-0.963,0.822
		C9.201,2.065,7.679,3.308,6.155,4.552c-0.068,0.056-0.106,0.119-0.146,0.18C5.814,4.916,5.687,5.171,5.687,5.455
		c0,4.934,0,9.869,0,14.803c0,7.467,0,14.934,0,22.397c0,1.254,0,2.507,0,3.761c0,0.545,0.455,1,1,1c5.894,0,11.787,0,17.681,0
		c3.788,0,7.574,0,11.361,0c0.272,0,0.476-0.102,0.634-0.243c0.023-0.019,0.049-0.032,0.07-0.054
		c0.02-0.021,0.031-0.043,0.049-0.064c0.145-0.158,0.247-0.361,0.247-0.639c0-1.15,0-2.305,0-3.455c1.333,0,2.667,0,4,0
		c0.272,0,0.476-0.102,0.634-0.243c0.023-0.019,0.049-0.032,0.07-0.054c0.02-0.021,0.031-0.043,0.049-0.064
		c0.145-0.158,0.247-0.361,0.247-0.639c0-4.936,0-9.869,0-14.803c0-7.466,0-14.932,0-22.397c0-1.254,0-2.507,0-3.761
		C41.728,0.455,41.273,0,40.728,0z M10.686,2.779c0,0.559,0,1.117,0,1.676c-0.684,0-1.368,0-2.052,0
		C9.318,3.896,10.002,3.338,10.686,2.779z M34.728,20.258c0,7.467,0,14.934,0,22.397c0,0.921,0,1.841,0,2.761
		c-5.561,0-11.121,0-16.681,0c-3.453,0-6.907,0-10.361,0c0-4.602,0-9.202,0-13.803c0-7.467,0-14.932,0-22.397c0-0.92,0-1.84,0-2.761
		c5.561,0,11.121,0,16.681,0c3.454,0,6.907,0,10.361,0C34.728,11.056,34.728,15.658,34.728,20.258z M39.728,15.803
		c0,7.465,0,14.931,0,22.397c0,0.921,0,1.841,0,2.761c-1,0-2,0-3,0c0-3.115,0-6.232,0-9.348c0-7.467,0-14.932,0-22.397
		c0-1.254,0-2.507,0-3.761c0-0.545-0.455-1-1-1c-5.895,0-11.787,0-17.681,0c-1.787,0-3.574,0-5.361,0c0-0.818,0-1.637,0-2.455
		c5.561,0,11.121,0,16.683,0c3.452,0,6.905,0,10.359,0C39.728,6.601,39.728,11.203,39.728,15.803z"/>
	<path d="M23.197,23.821c0.659-1.469,0.825-3.753-1.221-4.715c-2.835-1.333-4.899,1.606-4.276,2.561
		c0.223,0.215,0.65-0.059,1.019-0.243c0.41-0.205,0.748-0.299,0.651,0.511c-0.163,1.361-3.364,9.439-0.958,12.04
		c1.367,1.476,3.644,0.765,4.615-0.121c0.324-0.295,0.573-0.707,0.559-1.19c-0.012-0.427-0.634-0.404-0.753-0.39
		c-2.093,0.268-1.366-2.444-1.247-2.963C21.865,28.1,22.852,24.59,23.197,23.821z"/>
	<circle cx="21.012" cy="15.83" r="2.186"/>
</g>
</svg>